<?xml version="1.0" standalone="no"?>
<!DOCTYPE svg PUBLIC "-//W3C//DTD SVG 1.1//EN" "http://www.w3.org/Graphics/SVG/1.1/DTD/svg11.dtd">
<svg width="800" height="600" version="1.1" xmlns="http://www.w3.org/2000/svg">
<rect width="800" height="600" x="0" y="0" style="fill:rgb(238,238,238);stroke:none"/>
<rect width="800" height="600" x="0" y="0" style="fill:rgb(255,255,255);stroke:none"/>
<text x="2" y="566" fill="rgb(0,0,0)" font-family="Arial" font-size="12">0</text>
<text x="2" y="514" fill="rgb(0,0,0)" font-family="Arial" font-size="12">10</text>
<text x="2" y="462" fill="rgb(0,0,0)" font-family="Arial" font-size="12">20</text>
<text x="2" y="410" fill="rgb(0,0,0)" font-family="Arial" font-size="12">30</text>
<text x="2" y="358" fill="rgb(0,0,0)" font-family="Arial" font-size="12">40</text>
<text x="2" y="306" fill="rgb(0,0,0)" font-family="Arial" font-size="12">50</text>
<text x="2" y="254" fill="rgb(0,0,0)" font-family="Arial" font-size="12">60</text>
<text x="2" y="202" fill="rgb(0,0,0)" font-family="Arial" font-size="12">70</text>
<text x="2" y="150" fill="rgb(0,0,0)" font-family="Arial" font-size="12">80</text>
<text x="2" y="98" fill="rgb(0,0,0)" font-family="Arial" font-size="12">90</text>
<text x="2" y="46" fill="rgb(0,0,0)" font-family="Arial" font-size="12">100</text>
<text x="298" y="30" fill="rgb(0,0,0)" font-family="Arial" font-size="12">Sequence content across all bases</text>
<line x1="29" y1="560" x2="790" y2="560" stroke="rgb(0,0,0)" stroke-width="1"/>
<line x1="29" y1="560" x2="29" y2="40" stroke="rgb(0,0,0)" stroke-width="1"/>
<text x="336" y="595" fill="rgb(0,0,0)" font-family="Arial" font-size="12">Position in read (bp)</text>
<text x="33" y="575" fill="rgb(0,0,0)" font-family="Arial" font-size="12">1</text>
<rect width="17" height="520" x="46" y="40" style="fill:rgb(230,230,230);stroke:none"/>
<text x="50" y="575" fill="rgb(0,0,0)" font-family="Arial" font-size="12">2</text>
<text x="67" y="575" fill="rgb(0,0,0)" font-family="Arial" font-size="12">3</text>
<rect width="17" height="520" x="80" y="40" style="fill:rgb(230,230,230);stroke:none"/>
<text x="84" y="575" fill="rgb(0,0,0)" font-family="Arial" font-size="12">4</text>
<text x="101" y="575" fill="rgb(0,0,0)" font-family="Arial" font-size="12">5</text>
<rect width="17" height="520" x="114" y="40" style="fill:rgb(230,230,230);stroke:none"/>
<text x="118" y="575" fill="rgb(0,0,0)" font-family="Arial" font-size="12">6</text>
<text x="135" y="575" fill="rgb(0,0,0)" font-family="Arial" font-size="12">7</text>
<rect width="17" height="520" x="148" y="40" style="fill:rgb(230,230,230);stroke:none"/>
<text x="152" y="575" fill="rgb(0,0,0)" font-family="Arial" font-size="12">8</text>
<text x="169" y="575" fill="rgb(0,0,0)" font-family="Arial" font-size="12">9</text>
<rect width="17" height="520" x="182" y="40" style="fill:rgb(230,230,230);stroke:none"/>
<text x="189" y="575" fill="rgb(0,0,0)" font-family="Arial" font-size="12">12-13</text>
<rect width="17" height="520" x="216" y="40" style="fill:rgb(230,230,230);stroke:none"/>
<rect width="17" height="520" x="250" y="40" style="fill:rgb(230,230,230);stroke:none"/>
<text x="240" y="575" fill="rgb(0,0,0)" font-family="Arial" font-size="12">18-19</text>
<rect width="17" height="520" x="284" y="40" style="fill:rgb(230,230,230);stroke:none"/>
<text x="291" y="575" fill="rgb(0,0,0)" font-family="Arial" font-size="12">24-25</text>
<rect width="17" height="520" x="318" y="40" style="fill:rgb(230,230,230);stroke:none"/>
<rect width="17" height="520" x="352" y="40" style="fill:rgb(230,230,230);stroke:none"/>
<text x="342" y="575" fill="rgb(0,0,0)" font-family="Arial" font-size="12">30-31</text>
<rect width="17" height="520" x="386" y="40" style="fill:rgb(230,230,230);stroke:none"/>
<text x="393" y="575" fill="rgb(0,0,0)" font-family="Arial" font-size="12">36-37</text>
<rect width="17" height="520" x="420" y="40" style="fill:rgb(230,230,230);stroke:none"/>
<rect width="17" height="520" x="454" y="40" style="fill:rgb(230,230,230);stroke:none"/>
<text x="444" y="575" fill="rgb(0,0,0)" font-family="Arial" font-size="12">42-43</text>
<rect width="17" height="520" x="488" y="40" style="fill:rgb(230,230,230);stroke:none"/>
<text x="495" y="575" fill="rgb(0,0,0)" font-family="Arial" font-size="12">48-49</text>
<rect width="17" height="520" x="522" y="40" style="fill:rgb(230,230,230);stroke:none"/>
<rect width="17" height="520" x="556" y="40" style="fill:rgb(230,230,230);stroke:none"/>
<text x="546" y="575" fill="rgb(0,0,0)" font-family="Arial" font-size="12">54-55</text>
<rect width="17" height="520" x="590" y="40" style="fill:rgb(230,230,230);stroke:none"/>
<text x="597" y="575" fill="rgb(0,0,0)" font-family="Arial" font-size="12">60-61</text>
<rect width="17" height="520" x="624" y="40" style="fill:rgb(230,230,230);stroke:none"/>
<rect width="17" height="520" x="658" y="40" style="fill:rgb(230,230,230);stroke:none"/>
<text x="648" y="575" fill="rgb(0,0,0)" font-family="Arial" font-size="12">66-67</text>
<rect width="17" height="520" x="692" y="40" style="fill:rgb(230,230,230);stroke:none"/>
<text x="699" y="575" fill="rgb(0,0,0)" font-family="Arial" font-size="12">72-73</text>
<rect width="17" height="520" x="726" y="40" style="fill:rgb(230,230,230);stroke:none"/>
<text x="743" y="575" fill="rgb(0,0,0)" font-family="Arial" font-size="12">76</text>
<line x1="29" y1="560" x2="790" y2="560" stroke="rgb(180,180,180)" stroke-width="1"/>
<line x1="29" y1="508" x2="790" y2="508" stroke="rgb(180,180,180)" stroke-width="1"/>
<line x1="29" y1="456" x2="790" y2="456" stroke="rgb(180,180,180)" stroke-width="1"/>
<line x1="29" y1="404" x2="790" y2="404" stroke="rgb(180,180,180)" stroke-width="1"/>
<line x1="29" y1="352" x2="790" y2="352" stroke="rgb(180,180,180)" stroke-width="1"/>
<line x1="29" y1="300" x2="790" y2="300" stroke="rgb(180,180,180)" stroke-width="1"/>
<line x1="29" y1="248" x2="790" y2="248" stroke="rgb(180,180,180)" stroke-width="1"/>
<line x1="29" y1="196" x2="790" y2="196" stroke="rgb(180,180,180)" stroke-width="1"/>
<line x1="29" y1="144" x2="790" y2="144" stroke="rgb(180,180,180)" stroke-width="1"/>
<line x1="29" y1="92" x2="790" y2="92" stroke="rgb(180,180,180)" stroke-width="1"/>
<line x1="29" y1="40" x2="790" y2="40" stroke="rgb(180,180,180)" stroke-width="1"/>
<line x1="37" y1="420" x2="54" y2="456" stroke="rgb(136,34,85)" stroke-width="1"/>
<line x1="54" y1="456" x2="71" y2="438" stroke="rgb(136,34,85)" stroke-width="1"/>
<line x1="71" y1="438" x2="88" y2="498" stroke="rgb(136,34,85)" stroke-width="1"/>
<line x1="88" y1="498" x2="105" y2="518" stroke="rgb(136,34,85)" stroke-width="1"/>
<line x1="105" y1="518" x2="122" y2="417" stroke="rgb(136,34,85)" stroke-width="1"/>
<line x1="122" y1="417" x2="139" y2="428" stroke="rgb(136,34,85)" stroke-width="1"/>
<line x1="139" y1="428" x2="156" y2="463" stroke="rgb(136,34,85)" stroke-width="1"/>
<line x1="156" y1="463" x2="173" y2="148" stroke="rgb(136,34,85)" stroke-width="1"/>
<line x1="173" y1="148" x2="190" y2="523" stroke="rgb(136,34,85)" stroke-width="1"/>
<line x1="190" y1="523" x2="207" y2="522" stroke="rgb(136,34,85)" stroke-width="1"/>
<line x1="207" y1="522" x2="224" y2="141" stroke="rgb(136,34,85)" stroke-width="1"/>
<line x1="224" y1="141" x2="241" y2="333" stroke="rgb(136,34,85)" stroke-width="1"/>
<line x1="241" y1="333" x2="258" y2="526" stroke="rgb(136,34,85)" stroke-width="1"/>
<line x1="258" y1="526" x2="275" y2="519" stroke="rgb(136,34,85)" stroke-width="1"/>
<line x1="275" y1="519" x2="292" y2="340" stroke="rgb(136,34,85)" stroke-width="1"/>
<line x1="292" y1="340" x2="309" y2="530" stroke="rgb(136,34,85)" stroke-width="1"/>
<line x1="309" y1="530" x2="326" y2="535" stroke="rgb(136,34,85)" stroke-width="1"/>
<line x1="326" y1="535" x2="343" y2="536" stroke="rgb(136,34,85)" stroke-width="1"/>
<line x1="343" y1="536" x2="360" y2="516" stroke="rgb(136,34,85)" stroke-width="1"/>
<line x1="360" y1="516" x2="377" y2="354" stroke="rgb(136,34,85)" stroke-width="1"/>
<line x1="377" y1="354" x2="394" y2="538" stroke="rgb(136,34,85)" stroke-width="1"/>
<line x1="394" y1="538" x2="411" y2="487" stroke="rgb(136,34,85)" stroke-width="1"/>
<line x1="411" y1="487" x2="428" y2="327" stroke="rgb(136,34,85)" stroke-width="1"/>
<line x1="428" y1="327" x2="445" y2="541" stroke="rgb(136,34,85)" stroke-width="1"/>
<line x1="445" y1="541" x2="462" y2="537" stroke="rgb(136,34,85)" stroke-width="1"/>
<line x1="462" y1="537" x2="479" y2="329" stroke="rgb(136,34,85)" stroke-width="1"/>
<line x1="479" y1="329" x2="496" y2="350" stroke="rgb(136,34,85)" stroke-width="1"/>
<line x1="496" y1="350" x2="513" y2="349" stroke="rgb(136,34,85)" stroke-width="1"/>
<line x1="513" y1="349" x2="530" y2="351" stroke="rgb(136,34,85)" stroke-width="1"/>
<line x1="530" y1="351" x2="547" y2="530" stroke="rgb(136,34,85)" stroke-width="1"/>
<line x1="547" y1="530" x2="564" y2="318" stroke="rgb(136,34,85)" stroke-width="1"/>
<line x1="564" y1="318" x2="581" y2="346" stroke="rgb(136,34,85)" stroke-width="1"/>
<line x1="581" y1="346" x2="598" y2="530" stroke="rgb(136,34,85)" stroke-width="1"/>
<line x1="598" y1="530" x2="615" y2="323" stroke="rgb(136,34,85)" stroke-width="1"/>
<line x1="615" y1="323" x2="632" y2="333" stroke="rgb(136,34,85)" stroke-width="1"/>
<line x1="632" y1="333" x2="649" y2="343" stroke="rgb(136,34,85)" stroke-width="1"/>
<line x1="649" y1="343" x2="666" y2="323" stroke="rgb(136,34,85)" stroke-width="1"/>
<line x1="666" y1="323" x2="683" y2="306" stroke="rgb(136,34,85)" stroke-width="1"/>
<line x1="683" y1="306" x2="700" y2="316" stroke="rgb(136,34,85)" stroke-width="1"/>
<line x1="700" y1="316" x2="717" y2="512" stroke="rgb(136,34,85)" stroke-width="1"/>
<line x1="717" y1="512" x2="734" y2="532" stroke="rgb(136,34,85)" stroke-width="1"/>
<line x1="734" y1="532" x2="751" y2="235" stroke="rgb(136,34,85)" stroke-width="1"/>
<line x1="37" y1="416" x2="54" y2="424" stroke="rgb(51,34,136)" stroke-width="1"/>
<line x1="54" y1="424" x2="71" y2="446" stroke="rgb(51,34,136)" stroke-width="1"/>
<line x1="71" y1="446" x2="88" y2="352" stroke="rgb(51,34,136)" stroke-width="1"/>
<line x1="88" y1="352" x2="105" y2="398" stroke="rgb(51,34,136)" stroke-width="1"/>
<line x1="105" y1="398" x2="122" y2="432" stroke="rgb(51,34,136)" stroke-width="1"/>
<line x1="122" y1="432" x2="139" y2="446" stroke="rgb(51,34,136)" stroke-width="1"/>
<line x1="139" y1="446" x2="156" y2="418" stroke="rgb(51,34,136)" stroke-width="1"/>
<line x1="156" y1="418" x2="173" y2="527" stroke="rgb(51,34,136)" stroke-width="1"/>
<line x1="173" y1="527" x2="190" y2="528" stroke="rgb(51,34,136)" stroke-width="1"/>
<line x1="190" y1="528" x2="207" y2="536" stroke="rgb(51,34,136)" stroke-width="1"/>
<line x1="207" y1="536" x2="224" y2="529" stroke="rgb(51,34,136)" stroke-width="1"/>
<line x1="224" y1="529" x2="241" y2="335" stroke="rgb(51,34,136)" stroke-width="1"/>
<line x1="241" y1="335" x2="258" y2="344" stroke="rgb(51,34,136)" stroke-width="1"/>
<line x1="258" y1="344" x2="275" y2="534" stroke="rgb(51,34,136)" stroke-width="1"/>
<line x1="275" y1="534" x2="292" y2="524" stroke="rgb(51,34,136)" stroke-width="1"/>
<line x1="292" y1="524" x2="309" y2="148" stroke="rgb(51,34,136)" stroke-width="1"/>
<line x1="309" y1="148" x2="326" y2="525" stroke="rgb(51,34,136)" stroke-width="1"/>
<line x1="326" y1="525" x2="343" y2="531" stroke="rgb(51,34,136)" stroke-width="1"/>
<line x1="343" y1="531" x2="360" y2="530" stroke="rgb(51,34,136)" stroke-width="1"/>
<line x1="360" y1="530" x2="377" y2="346" stroke="rgb(51,34,136)" stroke-width="1"/>
<line x1="377" y1="346" x2="394" y2="161" stroke="rgb(51,34,136)" stroke-width="1"/>
<line x1="394" y1="161" x2="411" y2="532" stroke="rgb(51,34,136)" stroke-width="1"/>
<line x1="411" y1="532" x2="428" y2="315" stroke="rgb(51,34,136)" stroke-width="1"/>
<line x1="428" y1="315" x2="445" y2="314" stroke="rgb(51,34,136)" stroke-width="1"/>
<line x1="445" y1="314" x2="462" y2="350" stroke="rgb(51,34,136)" stroke-width="1"/>
<line x1="462" y1="350" x2="479" y2="531" stroke="rgb(51,34,136)" stroke-width="1"/>
<line x1="479" y1="531" x2="496" y2="490" stroke="rgb(51,34,136)" stroke-width="1"/>
<line x1="496" y1="490" x2="513" y2="532" stroke="rgb(51,34,136)" stroke-width="1"/>
<line x1="513" y1="532" x2="530" y2="347" stroke="rgb(51,34,136)" stroke-width="1"/>
<line x1="530" y1="347" x2="547" y2="349" stroke="rgb(51,34,136)" stroke-width="1"/>
<line x1="547" y1="349" x2="564" y2="505" stroke="rgb(51,34,136)" stroke-width="1"/>
<line x1="564" y1="505" x2="581" y2="479" stroke="rgb(51,34,136)" stroke-width="1"/>
<line x1="581" y1="479" x2="598" y2="154" stroke="rgb(51,34,136)" stroke-width="1"/>
<line x1="598" y1="154" x2="615" y2="501" stroke="rgb(51,34,136)" stroke-width="1"/>
<line x1="615" y1="501" x2="632" y2="317" stroke="rgb(51,34,136)" stroke-width="1"/>
<line x1="632" y1="317" x2="649" y2="322" stroke="rgb(51,34,136)" stroke-width="1"/>
<line x1="649" y1="322" x2="666" y2="535" stroke="rgb(51,34,136)" stroke-width="1"/>
<line x1="666" y1="535" x2="683" y2="360" stroke="rgb(51,34,136)" stroke-width="1"/>
<line x1="683" y1="360" x2="700" y2="540" stroke="rgb(51,34,136)" stroke-width="1"/>
<line x1="700" y1="540" x2="717" y2="516" stroke="rgb(51,34,136)" stroke-width="1"/>
<line x1="717" y1="516" x2="734" y2="525" stroke="rgb(51,34,136)" stroke-width="1"/>
<line x1="734" y1="525" x2="751" y2="510" stroke="rgb(51,34,136)" stroke-width="1"/>
<line x1="37" y1="451" x2="54" y2="420" stroke="rgb(17,119,51)" stroke-width="1"/>
<line x1="54" y1="420" x2="71" y2="436" stroke="rgb(17,119,51)" stroke-width="1"/>
<line x1="71" y1="436" x2="88" y2="463" stroke="rgb(17,119,51)" stroke-width="1"/>
<line x1="88" y1="463" x2="105" y2="431" stroke="rgb(17,119,51)" stroke-width="1"/>
<line x1="105" y1="431" x2="122" y2="412" stroke="rgb(17,119,51)" stroke-width="1"/>
<line x1="122" y1="412" x2="139" y2="428" stroke="rgb(17,119,51)" stroke-width="1"/>
<line x1="139" y1="428" x2="156" y2="438" stroke="rgb(17,119,51)" stroke-width="1"/>
<line x1="156" y1="438" x2="173" y2="527" stroke="rgb(17,119,51)" stroke-width="1"/>
<line x1="173" y1="527" x2="190" y2="525" stroke="rgb(17,119,51)" stroke-width="1"/>
<line x1="190" y1="525" x2="207" y2="149" stroke="rgb(17,119,51)" stroke-width="1"/>
<line x1="207" y1="149" x2="224" y2="531" stroke="rgb(17,119,51)" stroke-width="1"/>
<line x1="224" y1="531" x2="241" y2="534" stroke="rgb(17,119,51)" stroke-width="1"/>
<line x1="241" y1="534" x2="258" y2="526" stroke="rgb(17,119,51)" stroke-width="1"/>
<line x1="258" y1="526" x2="275" y2="531" stroke="rgb(17,119,51)" stroke-width="1"/>
<line x1="275" y1="531" x2="292" y2="528" stroke="rgb(17,119,51)" stroke-width="1"/>
<line x1="292" y1="528" x2="309" y2="522" stroke="rgb(17,119,51)" stroke-width="1"/>
<line x1="309" y1="522" x2="326" y2="150" stroke="rgb(17,119,51)" stroke-width="1"/>
<line x1="326" y1="150" x2="343" y2="513" stroke="rgb(17,119,51)" stroke-width="1"/>
<line x1="343" y1="513" x2="360" y2="154" stroke="rgb(17,119,51)" stroke-width="1"/>
<line x1="360" y1="154" x2="377" y2="527" stroke="rgb(17,119,51)" stroke-width="1"/>
<line x1="377" y1="527" x2="394" y2="485" stroke="rgb(17,119,51)" stroke-width="1"/>
<line x1="394" y1="485" x2="411" y2="349" stroke="rgb(17,119,51)" stroke-width="1"/>
<line x1="411" y1="349" x2="428" y2="540" stroke="rgb(17,119,51)" stroke-width="1"/>
<line x1="428" y1="540" x2="445" y2="357" stroke="rgb(17,119,51)" stroke-width="1"/>
<line x1="445" y1="357" x2="462" y2="538" stroke="rgb(17,119,51)" stroke-width="1"/>
<line x1="462" y1="538" x2="479" y2="358" stroke="rgb(17,119,51)" stroke-width="1"/>
<line x1="479" y1="358" x2="496" y2="526" stroke="rgb(17,119,51)" stroke-width="1"/>
<line x1="496" y1="526" x2="513" y2="304" stroke="rgb(17,119,51)" stroke-width="1"/>
<line x1="513" y1="304" x2="530" y2="532" stroke="rgb(17,119,51)" stroke-width="1"/>
<line x1="530" y1="532" x2="547" y2="495" stroke="rgb(17,119,51)" stroke-width="1"/>
<line x1="547" y1="495" x2="564" y2="352" stroke="rgb(17,119,51)" stroke-width="1"/>
<line x1="564" y1="352" x2="581" y2="541" stroke="rgb(17,119,51)" stroke-width="1"/>
<line x1="581" y1="541" x2="598" y2="528" stroke="rgb(17,119,51)" stroke-width="1"/>
<line x1="598" y1="528" x2="615" y2="543" stroke="rgb(17,119,51)" stroke-width="1"/>
<line x1="615" y1="543" x2="632" y2="527" stroke="rgb(17,119,51)" stroke-width="1"/>
<line x1="632" y1="527" x2="649" y2="539" stroke="rgb(17,119,51)" stroke-width="1"/>
<line x1="649" y1="539" x2="666" y2="519" stroke="rgb(17,119,51)" stroke-width="1"/>
<line x1="666" y1="519" x2="683" y2="532" stroke="rgb(17,119,51)" stroke-width="1"/>
<line x1="683" y1="532" x2="700" y2="505" stroke="rgb(17,119,51)" stroke-width="1"/>
<line x1="700" y1="505" x2="717" y2="147" stroke="rgb(17,119,51)" stroke-width="1"/>
<line x1="717" y1="147" x2="734" y2="146" stroke="rgb(17,119,51)" stroke-width="1"/>
<line x1="734" y1="146" x2="751" y2="560" stroke="rgb(17,119,51)" stroke-width="1"/>
<line x1="37" y1="434" x2="54" y2="422" stroke="rgb(221,204,119)" stroke-width="1"/>
<line x1="54" y1="422" x2="71" y2="402" stroke="rgb(221,204,119)" stroke-width="1"/>
<line x1="71" y1="402" x2="88" y2="409" stroke="rgb(221,204,119)" stroke-width="1"/>
<line x1="88" y1="409" x2="105" y2="374" stroke="rgb(221,204,119)" stroke-width="1"/>
<line x1="105" y1="374" x2="122" y2="461" stroke="rgb(221,204,119)" stroke-width="1"/>
<line x1="122" y1="461" x2="139" y2="420" stroke="rgb(221,204,119)" stroke-width="1"/>
<line x1="139" y1="420" x2="156" y2="404" stroke="rgb(221,204,119)" stroke-width="1"/>
<line x1="156" y1="404" x2="173" y2="520" stroke="rgb(221,204,119)" stroke-width="1"/>
<line x1="173" y1="520" x2="190" y2="145" stroke="rgb(221,204,119)" stroke-width="1"/>
<line x1="190" y1="145" x2="207" y2="515" stroke="rgb(221,204,119)" stroke-width="1"/>
<line x1="207" y1="515" x2="224" y2="521" stroke="rgb(221,204,119)" stroke-width="1"/>
<line x1="224" y1="521" x2="241" y2="520" stroke="rgb(221,204,119)" stroke-width="1"/>
<line x1="241" y1="520" x2="258" y2="326" stroke="rgb(221,204,119)" stroke-width="1"/>
<line x1="258" y1="326" x2="275" y2="137" stroke="rgb(221,204,119)" stroke-width="1"/>
<line x1="275" y1="137" x2="292" y2="330" stroke="rgb(221,204,119)" stroke-width="1"/>
<line x1="292" y1="330" x2="309" y2="523" stroke="rgb(221,204,119)" stroke-width="1"/>
<line x1="309" y1="523" x2="326" y2="512" stroke="rgb(221,204,119)" stroke-width="1"/>
<line x1="326" y1="512" x2="343" y2="142" stroke="rgb(221,204,119)" stroke-width="1"/>
<line x1="343" y1="142" x2="360" y2="523" stroke="rgb(221,204,119)" stroke-width="1"/>
<line x1="360" y1="523" x2="377" y2="495" stroke="rgb(221,204,119)" stroke-width="1"/>
<line x1="377" y1="495" x2="394" y2="538" stroke="rgb(221,204,119)" stroke-width="1"/>
<line x1="394" y1="538" x2="411" y2="353" stroke="rgb(221,204,119)" stroke-width="1"/>
<line x1="411" y1="353" x2="428" y2="540" stroke="rgb(221,204,119)" stroke-width="1"/>
<line x1="428" y1="540" x2="445" y2="509" stroke="rgb(221,204,119)" stroke-width="1"/>
<line x1="445" y1="509" x2="462" y2="296" stroke="rgb(221,204,119)" stroke-width="1"/>
<line x1="462" y1="296" x2="479" y2="503" stroke="rgb(221,204,119)" stroke-width="1"/>
<line x1="479" y1="503" x2="496" y2="356" stroke="rgb(221,204,119)" stroke-width="1"/>
<line x1="496" y1="356" x2="513" y2="537" stroke="rgb(221,204,119)" stroke-width="1"/>
<line x1="513" y1="537" x2="530" y2="493" stroke="rgb(221,204,119)" stroke-width="1"/>
<line x1="530" y1="493" x2="547" y2="349" stroke="rgb(221,204,119)" stroke-width="1"/>
<line x1="547" y1="349" x2="564" y2="547" stroke="rgb(221,204,119)" stroke-width="1"/>
<line x1="564" y1="547" x2="581" y2="357" stroke="rgb(221,204,119)" stroke-width="1"/>
<line x1="581" y1="357" x2="598" y2="509" stroke="rgb(221,204,119)" stroke-width="1"/>
<line x1="598" y1="509" x2="615" y2="356" stroke="rgb(221,204,119)" stroke-width="1"/>
<line x1="615" y1="356" x2="632" y2="546" stroke="rgb(221,204,119)" stroke-width="1"/>
<line x1="632" y1="546" x2="649" y2="518" stroke="rgb(221,204,119)" stroke-width="1"/>
<line x1="649" y1="518" x2="666" y2="345" stroke="rgb(221,204,119)" stroke-width="1"/>
<line x1="666" y1="345" x2="683" y2="523" stroke="rgb(221,204,119)" stroke-width="1"/>
<line x1="683" y1="523" x2="700" y2="362" stroke="rgb(221,204,119)" stroke-width="1"/>
<line x1="700" y1="362" x2="717" y2="547" stroke="rgb(221,204,119)" stroke-width="1"/>
<line x1="717" y1="547" x2="734" y2="519" stroke="rgb(221,204,119)" stroke-width="1"/>
<line x1="734" y1="519" x2="751" y2="416" stroke="rgb(221,204,119)" stroke-width="1"/>
<rect width="28" height="83" x="762" y="40" style="fill:rgb(255,255,255);stroke:none"/>
<rect width="28" height="83" x="762" y="40" rx="0" ry="0" style="fill:none;stroke-width:1;stroke:rgb(192,192,192)"/>
<text x="765" y="55" fill="rgb(136,34,85)" font-family="Arial" font-size="12" font-weight="bold">%T</text>
<text x="765" y="75" fill="rgb(51,34,136)" font-family="Arial" font-size="12" font-weight="bold">%C</text>
<text x="765" y="95" fill="rgb(17,119,51)" font-family="Arial" font-size="12" font-weight="bold">%A</text>
<text x="765" y="115" fill="rgb(221,204,119)" font-family="Arial" font-size="12" font-weight="bold">%G</text>
</svg>
