<?xml version="1.0" standalone="no"?>
<!DOCTYPE svg PUBLIC "-//W3C//DTD SVG 1.1//EN" "http://www.w3.org/Graphics/SVG/1.1/DTD/svg11.dtd">
<svg width="800" height="600" version="1.1" xmlns="http://www.w3.org/2000/svg">
<rect width="800" height="600" x="0" y="0" style="fill:rgb(238,238,238);stroke:none"/>
<rect width="800" height="600" x="0" y="0" style="fill:rgb(255,255,255);stroke:none"/>
<text x="2" y="566" fill="rgb(0,0,0)" font-family="Arial" font-size="12">0</text>
<text x="2" y="500" fill="rgb(0,0,0)" font-family="Arial" font-size="12">200000</text>
<text x="2" y="434" fill="rgb(0,0,0)" font-family="Arial" font-size="12">400000</text>
<text x="2" y="368" fill="rgb(0,0,0)" font-family="Arial" font-size="12">600000</text>
<text x="2" y="302" fill="rgb(0,0,0)" font-family="Arial" font-size="12">800000</text>
<text x="2" y="236" fill="rgb(0,0,0)" font-family="Arial" font-size="12">1000000</text>
<text x="2" y="170" fill="rgb(0,0,0)" font-family="Arial" font-size="12">1200000</text>
<text x="2" y="104" fill="rgb(0,0,0)" font-family="Arial" font-size="12">1400000</text>
<text x="262" y="30" fill="rgb(0,0,0)" font-family="Arial" font-size="12">Distribution of sequence lengths over all sequences</text>
<line x1="61" y1="560" x2="790" y2="560" stroke="rgb(0,0,0)" stroke-width="1"/>
<line x1="61" y1="560" x2="61" y2="40" stroke="rgb(0,0,0)" stroke-width="1"/>
<text x="330" y="595" fill="rgb(0,0,0)" font-family="Arial" font-size="12">Sequence Length (bp)</text>
<text x="56" y="575" fill="rgb(0,0,0)" font-family="Arial" font-size="12">16-17</text>
<rect width="27" height="520" x="88" y="40" style="fill:rgb(230,230,230);stroke:none"/>
<text x="110" y="575" fill="rgb(0,0,0)" font-family="Arial" font-size="12">20-21</text>
<rect width="27" height="520" x="142" y="40" style="fill:rgb(230,230,230);stroke:none"/>
<text x="164" y="575" fill="rgb(0,0,0)" font-family="Arial" font-size="12">24-25</text>
<rect width="27" height="520" x="196" y="40" style="fill:rgb(230,230,230);stroke:none"/>
<text x="218" y="575" fill="rgb(0,0,0)" font-family="Arial" font-size="12">28-29</text>
<rect width="27" height="520" x="250" y="40" style="fill:rgb(230,230,230);stroke:none"/>
<text x="272" y="575" fill="rgb(0,0,0)" font-family="Arial" font-size="12">32-33</text>
<rect width="27" height="520" x="304" y="40" style="fill:rgb(230,230,230);stroke:none"/>
<text x="326" y="575" fill="rgb(0,0,0)" font-family="Arial" font-size="12">36-37</text>
<rect width="27" height="520" x="358" y="40" style="fill:rgb(230,230,230);stroke:none"/>
<text x="380" y="575" fill="rgb(0,0,0)" font-family="Arial" font-size="12">40-41</text>
<rect width="27" height="520" x="412" y="40" style="fill:rgb(230,230,230);stroke:none"/>
<text x="434" y="575" fill="rgb(0,0,0)" font-family="Arial" font-size="12">44-45</text>
<rect width="27" height="520" x="466" y="40" style="fill:rgb(230,230,230);stroke:none"/>
<text x="488" y="575" fill="rgb(0,0,0)" font-family="Arial" font-size="12">48-49</text>
<rect width="27" height="520" x="520" y="40" style="fill:rgb(230,230,230);stroke:none"/>
<text x="542" y="575" fill="rgb(0,0,0)" font-family="Arial" font-size="12">52-53</text>
<rect width="27" height="520" x="574" y="40" style="fill:rgb(230,230,230);stroke:none"/>
<text x="596" y="575" fill="rgb(0,0,0)" font-family="Arial" font-size="12">56-57</text>
<rect width="27" height="520" x="628" y="40" style="fill:rgb(230,230,230);stroke:none"/>
<text x="650" y="575" fill="rgb(0,0,0)" font-family="Arial" font-size="12">60-61</text>
<rect width="27" height="520" x="682" y="40" style="fill:rgb(230,230,230);stroke:none"/>
<text x="704" y="575" fill="rgb(0,0,0)" font-family="Arial" font-size="12">64-65</text>
<rect width="27" height="520" x="736" y="40" style="fill:rgb(230,230,230);stroke:none"/>
<text x="758" y="575" fill="rgb(0,0,0)" font-family="Arial" font-size="12">68-69</text>
<line x1="61" y1="560" x2="790" y2="560" stroke="rgb(180,180,180)" stroke-width="1"/>
<line x1="61" y1="494" x2="790" y2="494" stroke="rgb(180,180,180)" stroke-width="1"/>
<line x1="61" y1="428" x2="790" y2="428" stroke="rgb(180,180,180)" stroke-width="1"/>
<line x1="61" y1="362" x2="790" y2="362" stroke="rgb(180,180,180)" stroke-width="1"/>
<line x1="61" y1="296" x2="790" y2="296" stroke="rgb(180,180,180)" stroke-width="1"/>
<line x1="61" y1="230" x2="790" y2="230" stroke="rgb(180,180,180)" stroke-width="1"/>
<line x1="61" y1="164" x2="790" y2="164" stroke="rgb(180,180,180)" stroke-width="1"/>
<line x1="61" y1="98" x2="790" y2="98" stroke="rgb(180,180,180)" stroke-width="1"/>
<line x1="74" y1="552" x2="101" y2="538" stroke="rgb(136,34,85)" stroke-width="1"/>
<line x1="101" y1="538" x2="128" y2="502" stroke="rgb(136,34,85)" stroke-width="1"/>
<line x1="128" y1="502" x2="155" y2="40" stroke="rgb(136,34,85)" stroke-width="1"/>
<line x1="155" y1="40" x2="182" y2="521" stroke="rgb(136,34,85)" stroke-width="1"/>
<line x1="182" y1="521" x2="209" y2="557" stroke="rgb(136,34,85)" stroke-width="1"/>
<line x1="209" y1="557" x2="236" y2="560" stroke="rgb(136,34,85)" stroke-width="1"/>
<line x1="236" y1="560" x2="263" y2="560" stroke="rgb(136,34,85)" stroke-width="1"/>
<line x1="263" y1="560" x2="290" y2="560" stroke="rgb(136,34,85)" stroke-width="1"/>
<line x1="290" y1="560" x2="317" y2="560" stroke="rgb(136,34,85)" stroke-width="1"/>
<line x1="317" y1="560" x2="344" y2="560" stroke="rgb(136,34,85)" stroke-width="1"/>
<line x1="344" y1="560" x2="371" y2="560" stroke="rgb(136,34,85)" stroke-width="1"/>
<line x1="371" y1="560" x2="398" y2="560" stroke="rgb(136,34,85)" stroke-width="1"/>
<line x1="398" y1="560" x2="425" y2="560" stroke="rgb(136,34,85)" stroke-width="1"/>
<line x1="425" y1="560" x2="452" y2="560" stroke="rgb(136,34,85)" stroke-width="1"/>
<line x1="452" y1="560" x2="479" y2="560" stroke="rgb(136,34,85)" stroke-width="1"/>
<line x1="479" y1="560" x2="506" y2="560" stroke="rgb(136,34,85)" stroke-width="1"/>
<line x1="506" y1="560" x2="533" y2="560" stroke="rgb(136,34,85)" stroke-width="1"/>
<line x1="533" y1="560" x2="560" y2="560" stroke="rgb(136,34,85)" stroke-width="1"/>
<line x1="560" y1="560" x2="587" y2="560" stroke="rgb(136,34,85)" stroke-width="1"/>
<line x1="587" y1="560" x2="614" y2="560" stroke="rgb(136,34,85)" stroke-width="1"/>
<line x1="614" y1="560" x2="641" y2="560" stroke="rgb(136,34,85)" stroke-width="1"/>
<line x1="641" y1="560" x2="668" y2="560" stroke="rgb(136,34,85)" stroke-width="1"/>
<line x1="668" y1="560" x2="695" y2="560" stroke="rgb(136,34,85)" stroke-width="1"/>
<line x1="695" y1="560" x2="722" y2="560" stroke="rgb(136,34,85)" stroke-width="1"/>
<line x1="722" y1="560" x2="749" y2="558" stroke="rgb(136,34,85)" stroke-width="1"/>
<line x1="749" y1="558" x2="776" y2="558" stroke="rgb(136,34,85)" stroke-width="1"/>
<rect width="130" height="23" x="660" y="40" style="fill:rgb(255,255,255);stroke:none"/>
<rect width="130" height="23" x="660" y="40" rx="0" ry="0" style="fill:none;stroke-width:1;stroke:rgb(192,192,192)"/>
<text x="663" y="55" fill="rgb(136,34,85)" font-family="Arial" font-size="12" font-weight="bold">Sequence Length</text>
</svg>
