<?xml version="1.0" standalone="no"?>
<!DOCTYPE svg PUBLIC "-//W3C//DTD SVG 1.1//EN" "http://www.w3.org/Graphics/SVG/1.1/DTD/svg11.dtd">
<svg width="800" height="600" version="1.1" xmlns="http://www.w3.org/2000/svg">
<rect width="800" height="600" x="0" y="0" style="fill:rgb(238,238,238);stroke:none"/>
<rect width="800" height="600" x="0" y="0" style="fill:rgb(255,255,255);stroke:none"/>
<text x="2" y="566" fill="rgb(0,0,0)" font-family="Arial" font-size="12">0</text>
<text x="2" y="501" fill="rgb(0,0,0)" font-family="Arial" font-size="12">50000</text>
<text x="2" y="436" fill="rgb(0,0,0)" font-family="Arial" font-size="12">100000</text>
<text x="2" y="370" fill="rgb(0,0,0)" font-family="Arial" font-size="12">150000</text>
<text x="2" y="305" fill="rgb(0,0,0)" font-family="Arial" font-size="12">200000</text>
<text x="2" y="240" fill="rgb(0,0,0)" font-family="Arial" font-size="12">250000</text>
<text x="2" y="174" fill="rgb(0,0,0)" font-family="Arial" font-size="12">300000</text>
<text x="2" y="109" fill="rgb(0,0,0)" font-family="Arial" font-size="12">350000</text>
<text x="258" y="30" fill="rgb(0,0,0)" font-family="Arial" font-size="12">Distribution of sequence lengths over all sequences</text>
<line x1="53" y1="560" x2="790" y2="560" stroke="rgb(0,0,0)" stroke-width="1"/>
<line x1="53" y1="560" x2="53" y2="40" stroke="rgb(0,0,0)" stroke-width="1"/>
<text x="330" y="595" fill="rgb(0,0,0)" font-family="Arial" font-size="12">Sequence Length (bp)</text>
<text x="48" y="575" fill="rgb(0,0,0)" font-family="Arial" font-size="12">16-17</text>
<rect width="27" height="520" x="80" y="40" style="fill:rgb(230,230,230);stroke:none"/>
<text x="102" y="575" fill="rgb(0,0,0)" font-family="Arial" font-size="12">20-21</text>
<rect width="27" height="520" x="134" y="40" style="fill:rgb(230,230,230);stroke:none"/>
<text x="156" y="575" fill="rgb(0,0,0)" font-family="Arial" font-size="12">24-25</text>
<rect width="27" height="520" x="188" y="40" style="fill:rgb(230,230,230);stroke:none"/>
<text x="210" y="575" fill="rgb(0,0,0)" font-family="Arial" font-size="12">28-29</text>
<rect width="27" height="520" x="242" y="40" style="fill:rgb(230,230,230);stroke:none"/>
<text x="264" y="575" fill="rgb(0,0,0)" font-family="Arial" font-size="12">32-33</text>
<rect width="27" height="520" x="296" y="40" style="fill:rgb(230,230,230);stroke:none"/>
<text x="318" y="575" fill="rgb(0,0,0)" font-family="Arial" font-size="12">36-37</text>
<rect width="27" height="520" x="350" y="40" style="fill:rgb(230,230,230);stroke:none"/>
<text x="372" y="575" fill="rgb(0,0,0)" font-family="Arial" font-size="12">40-41</text>
<rect width="27" height="520" x="404" y="40" style="fill:rgb(230,230,230);stroke:none"/>
<text x="426" y="575" fill="rgb(0,0,0)" font-family="Arial" font-size="12">44-45</text>
<rect width="27" height="520" x="458" y="40" style="fill:rgb(230,230,230);stroke:none"/>
<text x="480" y="575" fill="rgb(0,0,0)" font-family="Arial" font-size="12">48-49</text>
<rect width="27" height="520" x="512" y="40" style="fill:rgb(230,230,230);stroke:none"/>
<text x="534" y="575" fill="rgb(0,0,0)" font-family="Arial" font-size="12">52-53</text>
<rect width="27" height="520" x="566" y="40" style="fill:rgb(230,230,230);stroke:none"/>
<text x="588" y="575" fill="rgb(0,0,0)" font-family="Arial" font-size="12">56-57</text>
<rect width="27" height="520" x="620" y="40" style="fill:rgb(230,230,230);stroke:none"/>
<text x="642" y="575" fill="rgb(0,0,0)" font-family="Arial" font-size="12">60-61</text>
<rect width="27" height="520" x="674" y="40" style="fill:rgb(230,230,230);stroke:none"/>
<text x="696" y="575" fill="rgb(0,0,0)" font-family="Arial" font-size="12">64-65</text>
<rect width="27" height="520" x="728" y="40" style="fill:rgb(230,230,230);stroke:none"/>
<text x="750" y="575" fill="rgb(0,0,0)" font-family="Arial" font-size="12">68-69</text>
<line x1="53" y1="560" x2="790" y2="560" stroke="rgb(180,180,180)" stroke-width="1"/>
<line x1="53" y1="495" x2="790" y2="495" stroke="rgb(180,180,180)" stroke-width="1"/>
<line x1="53" y1="430" x2="790" y2="430" stroke="rgb(180,180,180)" stroke-width="1"/>
<line x1="53" y1="364" x2="790" y2="364" stroke="rgb(180,180,180)" stroke-width="1"/>
<line x1="53" y1="299" x2="790" y2="299" stroke="rgb(180,180,180)" stroke-width="1"/>
<line x1="53" y1="234" x2="790" y2="234" stroke="rgb(180,180,180)" stroke-width="1"/>
<line x1="53" y1="168" x2="790" y2="168" stroke="rgb(180,180,180)" stroke-width="1"/>
<line x1="53" y1="103" x2="790" y2="103" stroke="rgb(180,180,180)" stroke-width="1"/>
<line x1="66" y1="546" x2="93" y2="523" stroke="rgb(136,34,85)" stroke-width="1"/>
<line x1="93" y1="523" x2="120" y2="366" stroke="rgb(136,34,85)" stroke-width="1"/>
<line x1="120" y1="366" x2="147" y2="40" stroke="rgb(136,34,85)" stroke-width="1"/>
<line x1="147" y1="40" x2="174" y2="547" stroke="rgb(136,34,85)" stroke-width="1"/>
<line x1="174" y1="547" x2="201" y2="558" stroke="rgb(136,34,85)" stroke-width="1"/>
<line x1="201" y1="558" x2="228" y2="560" stroke="rgb(136,34,85)" stroke-width="1"/>
<line x1="228" y1="560" x2="255" y2="560" stroke="rgb(136,34,85)" stroke-width="1"/>
<line x1="255" y1="560" x2="282" y2="560" stroke="rgb(136,34,85)" stroke-width="1"/>
<line x1="282" y1="560" x2="309" y2="560" stroke="rgb(136,34,85)" stroke-width="1"/>
<line x1="309" y1="560" x2="336" y2="560" stroke="rgb(136,34,85)" stroke-width="1"/>
<line x1="336" y1="560" x2="363" y2="560" stroke="rgb(136,34,85)" stroke-width="1"/>
<line x1="363" y1="560" x2="390" y2="560" stroke="rgb(136,34,85)" stroke-width="1"/>
<line x1="390" y1="560" x2="417" y2="560" stroke="rgb(136,34,85)" stroke-width="1"/>
<line x1="417" y1="560" x2="444" y2="560" stroke="rgb(136,34,85)" stroke-width="1"/>
<line x1="444" y1="560" x2="471" y2="560" stroke="rgb(136,34,85)" stroke-width="1"/>
<line x1="471" y1="560" x2="498" y2="560" stroke="rgb(136,34,85)" stroke-width="1"/>
<line x1="498" y1="560" x2="525" y2="560" stroke="rgb(136,34,85)" stroke-width="1"/>
<line x1="525" y1="560" x2="552" y2="560" stroke="rgb(136,34,85)" stroke-width="1"/>
<line x1="552" y1="560" x2="579" y2="560" stroke="rgb(136,34,85)" stroke-width="1"/>
<line x1="579" y1="560" x2="606" y2="560" stroke="rgb(136,34,85)" stroke-width="1"/>
<line x1="606" y1="560" x2="633" y2="560" stroke="rgb(136,34,85)" stroke-width="1"/>
<line x1="633" y1="560" x2="660" y2="560" stroke="rgb(136,34,85)" stroke-width="1"/>
<line x1="660" y1="560" x2="687" y2="560" stroke="rgb(136,34,85)" stroke-width="1"/>
<line x1="687" y1="560" x2="714" y2="560" stroke="rgb(136,34,85)" stroke-width="1"/>
<line x1="714" y1="560" x2="741" y2="551" stroke="rgb(136,34,85)" stroke-width="1"/>
<line x1="741" y1="551" x2="768" y2="558" stroke="rgb(136,34,85)" stroke-width="1"/>
<rect width="130" height="23" x="660" y="40" style="fill:rgb(255,255,255);stroke:none"/>
<rect width="130" height="23" x="660" y="40" rx="0" ry="0" style="fill:none;stroke-width:1;stroke:rgb(192,192,192)"/>
<text x="663" y="55" fill="rgb(136,34,85)" font-family="Arial" font-size="12" font-weight="bold">Sequence Length</text>
</svg>
